<?xml version="1.0" encoding="UTF-8"?><svg width="48px" height="41px" viewBox="0 0 48 41" version="1.1" xmlns="http://www.w3.org/2000/svg" xmlns:xlink="http://www.w3.org/1999/xlink"><g fill="#ffffff" fill-rule="nonzero"><path d="M 36 13.1 C 36 12.5 35.6 12.1 35 12.1 L 5 12.1 C 4.4 12.1 4 12.5 4 13.1 L 4 17.1 C 4 17.6 4.4 18.1 5 18.1 L 35 18.1 C 35.6 18.1 36 17.6 36 17.1 L 36 13.1 Z M 34 16.1 L 6 16.1 L 6 14.1 L 34 14.1 L 34 16.1 Z"></path><path d="M 5 8.1 L 27 8.1 C 27.6 8.1 28 7.6 28 7.1 C 28 6.5 27.6 6.1 27 6.1 L 5 6.1 C 4.4 6.1 4 6.5 4 7.1 C 4 7.6 4.4 8.1 5 8.1 Z"></path><circle cx="34" cy="6.1" r="2"></circle><path d="M 28 25.1 C 28 24.5 27.6 24.1 27 24.1 C 26.4 24.1 26 24.5 26 25.1 C 26 26.9 26.6 27.8 27.2 28.6 C 27.6 29.3 28 29.9 28 31.1 C 28 31.6 28.4 32.1 29 32.1 C 29.6 32.1 30 31.6 30 31.1 C 30 29.3 29.4 28.3 28.8 27.5 C 28.4 26.8 28 26.3 28 25.1 Z"></path><path d="M 11 24.1 C 10.4 24.1 10 24.5 10 25.1 C 10 26.3 9.6 26.8 9.2 27.5 C 8.6 28.3 8 29.3 8 31.1 C 8 31.6 8.4 32.1 9 32.1 C 9.6 32.1 10 31.6 10 31.1 C 10 29.9 10.4 29.3 10.8 28.6 C 11.4 27.8 12 26.9 12 25.1 C 12 24.5 11.6 24.1 11 24.1 Z"></path><path d="M 19 24.1 C 18.4 24.1 18 24.5 18 25.1 L 18 31.1 C 18 31.6 18.4 32.1 19 32.1 C 19.6 32.1 20 31.6 20 31.1 L 20 25.1 C 20 24.5 19.6 24.1 19 24.1 Z"></path><path d="M 42 24.1 L 41 24.1 L 41 23.1 C 41 22.5 40.6 22.1 40 22.1 C 39.4 22.1 39 22.5 39 23.1 L 39 24.1 L 38 24.1 C 37.4 24.1 37 24.5 37 25.1 C 37 25.6 37.4 26.1 38 26.1 L 39 26.1 L 39 27.1 C 39 27.6 39.4 28.1 40 28.1 C 40.6 28.1 41 27.6 41 27.1 L 41 26.1 L 42 26.1 C 42.6 26.1 43 25.6 43 25.1 C 43 24.5 42.6 24.1 42 24.1 Z"></path><path d="M 42 32.1 L 38 32.1 C 37.4 32.1 37 32.5 37 33.1 C 37 33.6 37.4 34.1 38 34.1 L 42 34.1 C 42.6 34.1 43 33.6 43 33.1 C 43 32.5 42.6 32.1 42 32.1 Z"></path><path d="M 44 18.1 L 40 18.1 L 40 4.1 C 40 1.9 38.2 0.1 36 0.1 L 4 0.1 C 1.8 0.1 0 1.9 0 4.1 L 0 18.1 C 0 20.3 1.8 22.1 4 22.1 L 32 22.1 L 32 32.1 C 32 36.5 35.6 40.1 40 40.1 C 44.4 40.1 48 36.5 48 32.1 L 48 22.1 C 48 19.9 46.2 18.1 44 18.1 Z M 32.6 20.1 L 4 20.1 C 2.9 20.1 2 19.2 2 18.1 L 2 4.1 C 2 3 2.9 2.1 4 2.1 L 36 2.1 C 37.1 2.1 38 3 38 4.1 L 38 18.1 L 36 18.1 C 34.5 18.1 33.3 18.9 32.6 20.1 Z M 46 32.1 C 46 35.4 43.3 38.1 40 38.1 C 36.7 38.1 34 35.4 34 32.1 L 34 22.1 C 34 21 34.9 20.1 36 20.1 L 44 20.1 C 45.1 20.1 46 21 46 22.1 L 46 32.1 L 46 32.1 Z"></path></g></svg>